# xmcd
#
# Track frame offsets:
#	150
#	15780
#	31755
#	51775
#	62945
#	75580
#	88645
#	94070
#	100628
#	109545
#	124040
#	136500
#	144500
#	163480
#	172505
#	183315
#	189315
#	195390
#	208120
#
# Disc length: 2908 seconds
#
# Revision: 1
# Processed by: cddbd v1.5.2PL0 Copyright (c) Steve Scherf et al.
# Submitted via: EasyCDDAExtractor 2010.4.0.0
#
DISCID=e40b5a13
DTITLE=Gonul Sarkilarimiz - Gonul Sarkilarimiz 3
DYEAR=1900
DGENRE=Oldies
TTITLE0=Omrumuzun son demi
TTITLE1=Madem kustun dargindin
TTITLE2=Hicaz Fasli
TTITLE3=Ne gelen ne soran var
TTITLE4=Yadeller aldi beni
TTITLE5=Burasi mustur
TTITLE6=Kanun taksimi
TTITLE7=Sensiz kalan gonlumde
TTITLE8=Karsiyakali
TTITLE9=Menekse gözler
TTITLE10=Senden bilirim
TTITLE11=Makber
TTITLE12=Saclarin tarumar
TTITLE13=Leyla bir ozge candir
TTITLE14=Enginde yavas yavas
TTITLE15=Nasil gecti habersiz
TTITLE16=Elbet birgun bulusacagiz
TTITLE17=Biz heybelide her gece
TTITLE18=Ada sahillerinde bekliyorum
EXTD=
EXTT0=
EXTT1=
EXTT2=
EXTT3=
EXTT4=
EXTT5=
EXTT6=
EXTT7=
EXTT8=
EXTT9=
EXTT10=
EXTT11=
EXTT12=
EXTT13=
EXTT14=
EXTT15=
EXTT16=
EXTT17=
EXTT18=
PLAYORDER=
